<?xml version="1.0" encoding="utf-8"?>
<!-- Generator: Adobe Illustrator 26.0.3, SVG Export Plug-In . SVG Version: 6.00 Build 0)  -->
<svg version="1.1" id="Layer_1" xmlns="http://www.w3.org/2000/svg" xmlns:xlink="http://www.w3.org/1999/xlink" x="0px" y="0px"
	 viewBox="0 0 261.2 51.7" style="enable-background:new 0 0 261.2 51.7;" xml:space="preserve">
<g transform="matrix(.1 0 0 -.1 0 6038)">
	<path d="M78.7,59873.7c74.8,0.3,75.9,0.3,96.5,3.2c66.1,9.3,120.5,36.7,156.9,79.1c31.3,36.5,48.6,84.5,50.6,140.1
		c1.9,51.4-6,92.6-25,130c-16,31.5-39.7,57.3-70.7,76.7c-33.1,20.8-72.7,33.5-119.5,38.4c-17.3,1.8-44.3,2.4-103.2,2.2l-58-0.2
		v-12.4v-12.4l61.4,0.2c62,0.3,75.3-0.1,94.6-2.3c46.1-5.2,85.5-19.7,116.2-42.7c9.9-7.4,27-24.3,33.9-33.5
		c22.5-30,34.9-63.1,39.8-106.2c1.3-11.7,1.1-49.4-0.4-61c-4.4-33.9-12.8-59.6-27.6-84.2c-27.5-45.7-73.6-75.1-135.8-86.8
		c-25.7-4.8-32.7-5.2-112.2-5.1H5.8v-11.7v-11.8L78.7,59873.7z"/>
	<path d="M498.2,59873.8c0.5-0.2,65.1-0.3,143.7-0.2l142.9,0.2l0.2,11.6l0.1,11.5H656.4H527.6v100.3v100.3h67.1h67.1v12.1v12.1
		h-67.1h-67.1v98.6v98.6H642h114.4l-11.9-14.2c-6.6-7.8-12.3-14.8-12.9-15.4c-0.9-1.1-0.1-1.2,13.4-1.2l14.4,0.1l33.5,40
		c18.4,21.9,33.8,40.4,34.1,40.9c0.5,0.8-1.8,0.9-13.8,0.9l-14.3-0.1l-11.4-13.7l-11.4-13.8l-139.2-0.1l-139.2-0.2l-0.2-234
		C497.4,59921.2,497.6,59874,498.2,59873.8L498.2,59873.8z"/>
	<path d="M870.1,59990.5c2.5-18.4,8.3-35.3,16.9-49.1c21.5-34.7,57.7-58.1,102.2-65.9c10.5-1.9,31.9-2.6,42.3-1.4
		c47,5.4,87.2,29,111.3,65.5c4.8,7.1,10.5,18.6,13,26.1c6.8,19.9,7.6,47.1,2,68.3c-4.4,17.2-13.4,33.3-25.4,45.9
		c-11.1,11.7-20.9,18.6-38.6,27.4c-16.9,8.4-28,12.1-59,19.4c-16.4,3.8-41.6,10.8-53.6,14.8c-39.8,13.2-64.3,34.5-71.6,62.6
		c-2.3,8.6-3,28.5-1.3,38c7.1,40.9,41.3,70.8,88.3,77.1c9.5,1.3,30,1.3,40,0c34.1-4.4,60.2-22.6,74-51.6c3.5-7.2,9.3-24,10.7-30.7
		l0.8-3.8l13.1,0.1l13.2,0.2l-0.2,2.7c-0.5,5-3.6,18.8-5.9,25.8c-3.1,9.3-9.3,21.7-14.9,29.5c-5.9,8.3-18.2,21.1-26.4,27.2
		c-23.7,17.8-55.1,26.8-89.8,25.6c-24.8-0.9-45.3-5.9-66.1-16.2c-12.3-6.2-20.4-11.9-30.4-21.4c-15.8-15.2-26.4-32.9-31.3-52.4
		c-2.5-10.1-3.2-16.9-3.2-30.2c0.1-29.6,7.3-48,26.6-67.9c8-8.4,15.1-14,24.7-19.7c19.7-11.7,37.1-18,76.7-27.8
		c21.4-5.2,46.3-12.1,53.9-14.8c20.3-7.3,39.6-19.9,50.8-33.3c14.7-17.4,20.1-31.5,20.9-54.6c0.9-22.8-3.5-38.7-15.4-56.8
		c-6.4-9.8-17-20.6-26.6-27.5c-7.3-5.2-22.3-12.9-31.2-15.9c-18.2-6.3-38.4-9-55.3-7.4c-38.8,3.7-67.3,18.5-87.9,45.7
		c-10.7,14.2-17.1,29.9-20.5,50.5l-1.2,7.1h-13.3H869l0.1-2.1C869.1,59998.2,869.5,59994.2,870.1,59990.5L870.1,59990.5z"/>
	<path d="M1319.4,59873.5h15.1v235.4v235.4h-15.1h-15.1v-235.4v-235.4H1319.4z"/>
	<path d="M1510.7,60318.6c47.4-0.3,55.3-0.5,68.3-1.7c15.4-1.5,24.1-2.9,33.9-5.8c40.4-11.7,71.9-48,81.8-94
		c2.1-9.6,2.6-31.1,1.1-42.2c-3.9-27.8-15.2-50.3-35.8-71.8c-11.3-11.7-30.2-21.4-51.2-26.1c-16-3.6-20.8-3.9-63.5-4.2
		c-31.7-0.3-39.7-0.5-39.5-1.2c0.2-0.5,8.3-11.1,18-23.5c39-50.4,51.6-66.7,92.5-119.5l42.6-55.1h19.9c11-0.1,20,0.1,20,0.2
		s-30.7,39.4-68.1,87.3l-68.1,87.1l11.5,0.4c33.6,1.2,57.8,8.1,83.2,23.8c38.5,23.9,62.5,61.2,69.1,107.2c1.1,8.3,1,27.2-0.4,36.2
		c-3.8,25.4-13.8,50.4-27.8,69.3c-12.9,17.4-27.3,29.6-45.4,38.4c-18.2,8.9-32.7,13-56.7,16c-23.6,2.9-36.8,3.6-89.1,3.9l-49.8,0.3
		v-12.4v-12.4L1510.7,60318.6z"/>
	<path d="M1967,59873.5h143.5v11.7v11.7h-128.8H1853v100.3v100.3h67.4h67.4v12.1v12.1h-67.4H1853v98.6v98.6h114.1h114l-11.9-14.2
		c-6.6-7.8-12.3-14.8-12.9-15.4c-0.9-1.1-0.1-1.2,13.4-1.2h14.4l33.5,40c18.4,22,33.8,40.4,34.1,40.9c0.5,0.8-1.8,0.9-13.8,0.9
		h-14.3l-11.4-13.8l-11.4-13.7h-138.7h-138.6V60108v-234.4H1967L1967,59873.5z"/>
	<path d="M2396.8,59873.6l143.4,0.2l0.2,11.6l0.1,11.5h-128.8h-128.8v100.3v100.3h67.4h67.4v5.6c0,3-0.2,8.5-0.5,12.1l-0.4,6.5h-67
		h-66.9v98.6v98.6h128.8h128.8l-0.1,11.6l-0.2,11.5l-143.4,0.2l-143.3,0.1v-234.4v-234.4L2396.8,59873.6z"/>
</g>
</svg>
